<svg xmlns="http://www.w3.org/2000/svg" xmlns:xlink="http://www.w3.org/1999/xlink" viewBox="0 0 1024 1024"><defs><style>.cls-1{fill:url(#linear-gradient);}.cls-2{fill:#19401f;}</style><linearGradient id="linear-gradient" x1="68.08" y1="955.92" x2="955.92" y2="68.08" gradientUnits="userSpaceOnUse"><stop offset="0" stop-color="#4bbf5d"/><stop offset="0.32" stop-color="#4abc5c"/><stop offset="0.54" stop-color="#46b357"/><stop offset="0.73" stop-color="#40a450"/><stop offset="0.9" stop-color="#388f46"/><stop offset="1" stop-color="#327f3e"/></linearGradient></defs><g id="Layer_2" data-name="Layer 2"><g id="App_Icon_Kit_B" data-name="App Icon Kit B"><g id="App_Icon_and_Badge" data-name="App Icon and Badge"><g id="Main"><path id="App_Icon_Placeholder" data-name="App Icon Placeholder" class="cls-1" d="M357,0H667C769.8,0,821.18,0,876.52,17.49a217.47,217.47,0,0,1,130,130C1024,202.83,1024,254.22,1024,357V667c0,102.8,0,154.19-17.5,209.53a217.43,217.43,0,0,1-130,130C821.18,1024,769.8,1024,667,1024H357c-102.79,0-154.17,0-209.51-17.5a217.43,217.43,0,0,1-130-130C0,821.18,0,769.79,0,667V357C0,254.22,0,202.83,17.5,147.48a217.47,217.47,0,0,1,130-130C202.82,0,254.2,0,357,0h0"/><path class="cls-2" d="M101.81,403.36c-.2-3,1.23-5.49,2.14-8.07,20.76-58.84,58.44-104.82,107.87-141.87a303,303,0,0,1,31.05-21c5.28-3,5.1-5.54,2.2-10.23-13.54-21.88-36.51-31.6-64.41-26-19,3.81-35.72,12.42-50.85,24.71-25.19,20.46-41.19,46.56-50.47,77.44-1.45-5.85-.43-11.8.32-17.57,2.49-19,10.36-35.89,20.11-52.29,29.62-49.81,101.59-86.35,180.55-60.48a182.19,182.19,0,0,1,34.32,14.91,18.9,18.9,0,0,0,11.94,2.26q57.29-5.65,114.6-11.07a9.11,9.11,0,0,1,2.07.62L431.7,187.34c-31.72,34.58-55,73.65-63.64,120.4-6.75,36.5-2.88,72.52,5.3,108.32,8,34.87,19.7,68.69,28.78,103.25,7.78,29.6,13.44,59.49,11.41,90.32-1.31,19.77-6.25,38.94-9.88,58.33a118.51,118.51,0,0,0-2.19,14.94c-.42,7.1,2.37,10,9.4,9.12,7.81-1,15.52-2.79,23.24-4.37,10.69-2.2,21.35-4.52,32.19-6.32-50.17,20.09-102.45,36.54-136.95,84.19,12-52-3.61-98.5-21.59-144.5-11.5-29.43-26.58-57.14-42.57-84.41a451.37,451.37,0,0,0-35.47-51.94C208.06,457.28,185,431,154.6,412.72,135.23,401.07,126,399.67,101.81,403.36ZM354.47,520.75c.13-3.84-2.42-5.92-4-8.44-6.87-11-15.83-20.35-24.43-30-12.43-13.86-24.75-27.83-38.87-40.05-3.11-2.68-5-3.27-5.55,2-1.34,12.65-2.39,25.24-1.34,38,1.23,15.08,8.35,25.32,22.49,30.87,4.18,1.64,8.56,1.66,12.83,2.34C328.47,517.54,341.43,519,354.47,520.75Z"/><path class="cls-2" d="M584.45,174c14.56,1.36,28.85,2.67,43.14,4,24.88,2.38,49.77,4.72,74.63,7.28,4.29.45,7.62-1.1,11.14-3C751,162.28,790.6,154,832.83,163.19c34.39,7.45,63.29,24.6,85.3,52.14,17.43,21.81,28.65,46.54,30.23,74.93.15,2.59,0,5.2,0,8.49-2.29-1.44-2.08-3.6-2.53-5.13-9-30.95-26.71-55.78-52.09-75.42-15.92-12.33-33.63-20.62-53.65-22.93-24.84-2.87-44.68,5.62-58.31,27.34-2.89,4.61-2.38,6.81,2.3,9.68,34.41,21.18,65.36,46.47,91.07,77.87a282.92,282.92,0,0,1,48.4,86.14c.65,1.86,1.23,3.75,1.77,5.65.1.35-.16.8-.31,1.51-32.72-9.15-55.62,9.65-78.24,28.23-18.73,15.37-34.42,33.78-49.07,53C753.86,542.23,720.2,605,701.21,675.14c-6.75,24.9-10.4,50.27-6.2,76.15.69,4.28,1.78,8.49,2.31,13.08-16.38-22.45-37.93-38.44-62.16-51.2-23.89-12.59-49.24-21.68-74.1-32.33,14.23,3.06,28.46,6.16,42.7,9.17a105.5,105.5,0,0,0,11.65,2c7.83.76,10.86-1.9,10.17-9.62a180.37,180.37,0,0,0-3.41-20.74c-5.49-26.22-10.79-52.42-8.56-79.49,2.76-33.44,11.91-65.39,21.35-97.4,12.2-41.37,25.1-82.68,27.3-126.26,2.82-56-14.67-105.28-48.55-149.31-7.91-10.26-16.41-20-25.28-29.43C587,178.25,584.93,177.13,584.45,174Zm87.3,347.7c18-4.32,35.93-4.08,52.84-9,10.78-3.12,18.58-10.73,20.92-23,2.47-12.91,2-25.72.68-38.59-.37-3.6.61-9.37-2.13-10.3-3.94-1.33-6.76,3.75-9.69,6.5-16.15,15.1-30.88,31.59-45.19,48.38C682.76,503.25,675.42,510.45,671.75,521.73Z"/><path class="cls-2" d="M516.82,724.78c27.82-.32,53.44,7,76.11,23.09,19.2,13.62,33,31.8,41.69,53.78,1.19,3,.24,4.31-2.29,5.65-30.34,16.19-59.51,34.46-90.09,50.28-22.8,11.79-44.61,11.81-66.91-1.14-19.33-11.23-38.58-22.57-57.59-34.32-8.37-5.18-17.09-9.83-25.82-14.39-3.58-1.86-4-3.82-2.38-7.28a109.63,109.63,0,0,1,24.84-35.12C443.28,738.23,477.54,725.28,516.82,724.78Z"/></g></g></g></g></svg>